<?xml version="1.0" encoding="UTF-8" standalone="no"?>
<!-- Created with Inkscape (http://www.inkscape.org/) -->

<svg
   height="40"
   width="35"
   version="1.0"
   id="svg27"
   xmlns:xlink="http://www.w3.org/1999/xlink"
   xmlns="http://www.w3.org/2000/svg"
   xmlns:svg="http://www.w3.org/2000/svg">
 <g id="white-knight" class="white knight" fill="none" fill-rule="evenodd" stroke="#000" stroke-width="1.5" stroke-linecap="round" stroke-linejoin="round" transform="translate(3, -17) scale(1.4)">
      <path
       d="m14.44,29.5c0.222,1.68-3.09,4.06-4.5,5-1.73,1.16-1.74,2.7-3,2.5-0.602-0.545,0.817-2.02,0-2-0.58,0,0.19,1.1-0.5,1.5-0.58,0-2.5,0.4-2.5-2.5,0-1.2,3.5-6.5,3.5-6.5s0.934-1.08,1-2c-0.419-0.575-0.258-1.48,0-2,0.365-0.731,1.5,1.5,1.5,1.5h1s0.5-1.5,1.5-2c0.517-0.258,0.5,2,0.5,2,6.07,0.578,9.29,4.37,9,16.5h-12.5c0-4.9,4.8-3.7,4.5-10.5"
       fill-rule="evenodd"
       stroke="#000"
       stroke-linecap="round"
       stroke-miterlimit="4"
       stroke-dasharray="none"
       stroke-width="1.31999993"
       fill="#FFF"
       id="path4" />
    <path
       fill="#000"
       d="m9,23.5a0.5,0.5,0,1,1,-1,0,0.5,0.5,0,1,1,1,0z"
       transform="translate(-3.4999999,10)"
       id="path6" />
    <path
       fill="#000"
       d="m9.6058,30.28a1.0281,1.4729,30,0,1,-1.7807,-1.028,1.0281,1.4729,30,0,1,1.7807,1.028z"
       id="path8" />
    <g transform="translate(-1, 13.5) scale(1.1)">
      <path
       stroke-linejoin="round"
       d="m18,14,4-8-4,4,0-6-3,5.125-2-5-2,5l-3-5.125v6l-4-4,3,8s2.0349-2.5,6-2.5,5,2.5,5,2.5z"
       fill-rule="evenodd"
       stroke="#000"
       stroke-miterlimit="4"
       stroke-dasharray="none"
       stroke-width="0.80000001"
       fill="#FFF"
       id="path12" />
    <path
       id="path3804"
       d="m 5.4390449,5.7013709 a 1.5,1.5 0 0 1 -3,0 1.5,1.5 0 1 1 3,0 z"
       stroke-dashoffset="0"
       stroke="#000000"
       stroke-miterlimit="4"
       stroke-dasharray="none"
       stroke-width="0.75"
       fill="#ffffff" />
    <use
       xlink:href="#path3804"
       transform="translate(3.8438703,-2.1795547)"
       height="26"
       width="26"
       y="0"
       x="0"
       id="use15" />
    <use
       xlink:href="#path3804"
       transform="translate(9.0337786,-3.5375703)"
       height="26"
       width="26"
       y="0"
       x="0"
       id="use17" />
    <use
       xlink:href="#path3804"
       transform="matrix(-1,0,0,1,25.939045,0.29862908)"
       height="26"
       width="26"
       y="0"
       x="0"
       id="use19" />
    <use
       xlink:href="#path3804"
       transform="matrix(-1,0,0,1,22.107134,-2.1404461)"
       height="26"
       width="26"
       y="0"
       x="0"
       id="use21" />
    </g>
  </g>
</svg>
