<?xml version="1.0" encoding="UTF-8" standalone="no"?>
<!-- Created with Inkscape (http://www.inkscape.org/) -->

<svg
   height="50"
   width="50"
   version="1.0"
   id="svg27"
   sodipodi:docname="Amazon.svg"
   inkscape:version="1.1.1 (eb90963e84, 2021-10-02)"
   xmlns:inkscape="http://www.inkscape.org/namespaces/inkscape"
   xmlns:sodipodi="http://sodipodi.sourceforge.net/DTD/sodipodi-0.dtd"
   xmlns="http://www.w3.org/2000/svg"
   xmlns:svg="http://www.w3.org/2000/svg">
  <defs
     id="defs202" />
  <sodipodi:namedview
     id="namedview200"
     pagecolor="#ffffff"
     bordercolor="#666666"
     borderopacity="1.0"
     inkscape:pageshadow="2"
     inkscape:pageopacity="0.0"
     inkscape:pagecheckerboard="0"
     showgrid="false"
     inkscape:zoom="16.14"
     inkscape:cx="25"
     inkscape:cy="21.530359"
     inkscape:window-width="1848"
     inkscape:window-height="1016"
     inkscape:window-x="1992"
     inkscape:window-y="27"
     inkscape:window-maximized="1"
     inkscape:current-layer="white_Amazon" />
  <g
     id="white-Amazon"
     class="white Amazon"
     fill="#fff"
     fill-rule="evenodd"
     stroke="#000"
     stroke-width="1.5"
     stroke-linecap="round"
     stroke-linejoin="round"
  transform="translate(0,-3)">
    <!-- Queen  -->
    <path
       d="m 8.3477936,8.8273232 c 0,3.6666658 -4,2.6666658 -4,0 0,-2.6666655 4,-2.6666655 4,0 z M 25.663759,3.4977518 c 0,2.6666655 -4,2.6666655 -4,0 0,-2.66666551 4,-2.66666551 4,0 z m 15.924182,6.8150022 c 0,2.666666 -4,2.666666 -4,0 0,-2.6666655 4,-2.6666655 4,0 z M 17.163759,4.4977518 c 0,2.6666655 -4,2.6666655 -4,0 0,-2.6666655 4,-2.6666655 4,0 z m 17,0.5 c 0,2.6666655 -4,2.6666655 -4,0 0,-2.6666655 4,-2.6666655 4,0 z"/>
    <path
       d="m 10.395776,25.964784 c 16.498078,-10.833063 14.9731,-0.432477 16.382802,-2.707859 -5.358968,60.59679 11.055273,-7.86471 11.338576,-9.281012 l -6.965889,5.42109 C 32.74364,13.661058 32.121647,12.610118 32.121647,7.9434516 L 25.876534,16.097716 C 23.823253,6.026462 24.737621,10.862442 23.737621,5.8624415 L 19.897756,16.230857 14.879019,7.267153 13.976485,18.997584 6.9025012,11.191985 Z"/>
    <!-- knight -->
    <path
       d="m 19.992648,20.005828 c 10.5,1 16.5,8 16,29 h -23 c 0,-9 10,-6.5 8,-21"
       style="fill:#ffffff;stroke:#000000"/>
    <path
       d="m 24.992648,27.005828 c 1.38,2.91 -4.55,7.37 -7,9 -3,2 -2.82,4.34 -5,4 -1.042,-0.94 1.41,-3.04 0,-3 -1,0 0.19,1.23 -1,2 -1,0 -4.0034842,0.848059 -4.0004842,-4.151941 7.4877372,-16.141515 4.3402652,-9.308999 10.7026632,-14.79051"
       style="fill:#ffffff;stroke:#000000"/>
    <path
       d="m 12.96339,33.485318 a 0.5,0.5 0 1 1 -1,0 0.5,0.5 0 1 1 1,0 z"
       style="fill:#000000;stroke:#000000"/>
    <path
       d="m 17.063131,26.8687 a 0.499989,1.499967 30.000728 1 1 -0.866,-0.5 0.499989,1.499967 30.000728 1 1 0.866,0.5 z"
       style="fill:#000000;stroke:#000000;stroke-width:1.49997"/>
  </g>
</svg>
